<?xml version="1.0" standalone="no"?><!DOCTYPE svg PUBLIC "-//W3C//DTD SVG 1.1//EN" "http://www.w3.org/Graphics/SVG/1.1/DTD/svg11.dtd"><svg t="1662038439858" class="icon" viewBox="0 0 1024 1024" version="1.1" xmlns="http://www.w3.org/2000/svg" p-id="1530" xmlns:xlink="http://www.w3.org/1999/xlink" width="100" height="100"><path d="M442.88 917.333333h138.24A208.213333 208.213333 0 0 0 789.333333 709.12V341.333333H234.666667v367.786667A208.213333 208.213333 0 0 0 442.88 917.333333z" fill="#FFD28F" p-id="1531"></path><path d="M640 725.333333a199.68 199.68 0 0 0-128-42.666666 199.68 199.68 0 0 0-128 42.666666 75.306667 75.306667 0 0 1 64-74.453333l64-10.88 64 10.88A75.306667 75.306667 0 0 1 640 725.333333z" fill="#FF6B3D" p-id="1532"></path><path d="M725.333333 576a85.333333 64 90 1 0 128 0 85.333333 64 90 1 0-128 0Z" fill="#FFB74D" p-id="1533"></path><path d="M170.666667 576a85.333333 64 90 1 0 128 0 85.333333 64 90 1 0-128 0Z" fill="#FFB74D" p-id="1534"></path><path d="M362.666667 256a149.333333 106.666667 0 1 0 298.666666 0 149.333333 106.666667 0 1 0-298.666666 0Z" fill="#404B50" p-id="1535"></path><path d="M469.333333 554.666667a64 64 0 0 1-128 0z" fill="#FFFFFF" p-id="1536"></path><path d="M437.333333 554.666667a32 32 0 0 1-64 0z" fill="#37474F" p-id="1537"></path><path d="M192 320v192l42.666667 42.666667v154.88A208.213333 208.213333 0 0 0 442.88 917.333333h138.24A208.213333 208.213333 0 0 0 789.333333 709.12V554.666667l42.666667-42.666667v-192z m490.666667 469.333333c-84.266667 0-97.92-64-170.666667-64s-85.333333 64-170.666667 64l-64-384h469.333334z" fill="#FF6B3D" p-id="1538"></path><path d="M704 549.546667a85.333333 85.333333 0 1 1-170.666667 0c0-50.133333 170.666667-50.133333 170.666667 0z" fill="#37474F" p-id="1539"></path><path d="M789.333333 596.266667L328.96 384 298.666667 440.32l490.666666 228.693333v-72.746666z" fill="#37474F" p-id="1540"></path><path d="M512 213.333333c82.133333 0 21.333333-149.333333 21.333333-149.333333 205.653333 61.866667 246.826667 232.533333 426.666667 341.333333a375.893333 375.893333 0 0 1-128 85.333334h-85.333333a352.426667 352.426667 0 0 0-234.666667-85.333334zM512 213.333333c-82.133333 0-21.333333-149.333333-21.333333-149.333333-205.653333 61.866667-246.826667 232.533333-426.666667 341.333333a375.893333 375.893333 0 0 0 128 85.333334h85.333333a352.426667 352.426667 0 0 1 234.666667-85.333334z" fill="#5B6E77" p-id="1541"></path><path d="M597.333333 234.666667m-21.333333 0a21.333333 21.333333 0 1 0 42.666667 0 21.333333 21.333333 0 1 0-42.666667 0Z" fill="#F0F0F0" p-id="1542"></path><path d="M603.946667 262.613333m-14.72 0a14.72 14.72 0 1 0 29.44 0 14.72 14.72 0 1 0-29.44 0Z" fill="#F0F0F0" p-id="1543"></path><path d="M426.666667 234.666667m-21.333334 0a21.333333 21.333333 0 1 0 42.666667 0 21.333333 21.333333 0 1 0-42.666667 0Z" fill="#F0F0F0" p-id="1544"></path><path d="M420.053333 262.613333m-14.72 0a14.72 14.72 0 1 0 29.44 0 14.72 14.72 0 1 0-29.44 0Z" fill="#F0F0F0" p-id="1545"></path><path d="M426.666667 341.333333m-21.333334 0a21.333333 21.333333 0 1 0 42.666667 0 21.333333 21.333333 0 1 0-42.666667 0Z" fill="#F0F0F0" p-id="1546"></path><path d="M420.053333 313.386667m-14.72 0a14.72 14.72 0 1 0 29.44 0 14.72 14.72 0 1 0-29.44 0Z" fill="#F0F0F0" p-id="1547"></path><path d="M597.333333 341.333333m-21.333333 0a21.333333 21.333333 0 1 0 42.666667 0 21.333333 21.333333 0 1 0-42.666667 0Z" fill="#F0F0F0" p-id="1548"></path><path d="M603.946667 313.386667m-14.72 0a14.72 14.72 0 1 0 29.44 0 14.72 14.72 0 1 0-29.44 0Z" fill="#F0F0F0" p-id="1549"></path><path d="M512 234.666667a64 64 0 0 0-64 64c0 35.413333 30.08 41.173333 65.493333 41.173333S576 334.08 576 298.666667a64 64 0 0 0-64-64z m-21.333333 77.44a13.44 13.44 0 1 1 13.44-13.44 13.44 13.44 0 0 1-13.44 13.44z m42.666666 7.893333a21.333333 21.333333 0 1 1 21.333334-21.333333 21.333333 21.333333 0 0 1-21.333334 21.333333z" fill="#F0F0F0" p-id="1550"></path><path d="M490.666667 320h42.666666v30.506667a12.16 12.16 0 0 1-12.16 12.16h-18.346666a12.16 12.16 0 0 1-12.16-12.16V320z" fill="#F0F0F0" p-id="1551"></path></svg>