<?xml version="1.0" standalone="no"?><!DOCTYPE svg PUBLIC "-//W3C//DTD SVG 1.1//EN" "http://www.w3.org/Graphics/SVG/1.1/DTD/svg11.dtd"><svg t="1662037523921" class="icon" viewBox="0 0 1024 1024" version="1.1" xmlns="http://www.w3.org/2000/svg" p-id="2107" width="100" height="100" xmlns:xlink="http://www.w3.org/1999/xlink"><path d="M746.666667 288a181.333333 181.333333 0 0 1-362.666667 0c0-100.053333 17.28-202.666667 117.333333-202.666667C638.293333 85.333333 746.666667 187.946667 746.666667 288z" fill="#5B6E77" p-id="2108"></path><path d="M810.666667 462.72C810.666667 669.44 686.506667 853.333333 533.333333 853.333333s-277.333333-183.893333-277.333333-390.613333S380.16 170.666667 533.333333 170.666667s277.333333 85.333333 277.333334 292.053333z" fill="#F27BA3" p-id="2109"></path><path d="M745.813333 555.52a85.333333 64 90 1 0 128 0 85.333333 64 90 1 0-128 0Z" fill="#9CCC65" p-id="2110"></path><path d="M148.48 555.52a85.333333 64 90 1 0 128 0 85.333333 64 90 1 0-128 0Z" fill="#9CCC65" p-id="2111"></path><path d="M512 896a293.333333 293.333333 0 0 0 293.12-277.333333l10.026667-170.666667c-22.4 3.626667-234.666667-45.44-234.666667-298.666667h-94.933333a277.333333 277.333333 0 0 0-277.333334 293.12l10.666667 176.213334A293.333333 293.333333 0 0 0 512 896z" fill="#B8DA90" p-id="2112"></path><path d="M256 213.333333c-132.906667 0-85.333333 277.333333-85.333333 277.333334l42.666666 42.666666 42.666667-42.666666v-106.666667a516.906667 516.906667 0 0 0 128-128c149.333333 105.173333 256 85.333333 256 85.333333s64-256-149.333333-256c-118.613333 0-188.8 29.013333-234.666667 128z" fill="#5B6E77" p-id="2113"></path><path d="M512 576s-42.666667 64-42.666667 85.333333 21.333333 21.333333 42.666667 21.333334 42.666667 0 42.666667-21.333334-42.666667-85.333333-42.666667-85.333333zM490.666667 541.44c0 39.68-47.786667 119.893333-106.666667 119.893333s-106.666667-80.213333-106.666667-119.893333S325.12 469.333333 384 469.333333s106.666667 32.213333 106.666667 72.106667zM746.666667 541.44c0 39.68-47.786667 119.893333-106.666667 119.893333s-106.666667-80.213333-106.666667-119.893333S581.12 469.333333 640 469.333333s106.666667 32.213333 106.666667 72.106667z" fill="#699948" p-id="2114"></path><path d="M640 554.666667m-42.666667 0a42.666667 42.666667 0 1 0 85.333334 0 42.666667 42.666667 0 1 0-85.333334 0Z" fill="#FFFFFF" p-id="2115"></path><path d="M640 554.666667m-21.333333 0a21.333333 21.333333 0 1 0 42.666666 0 21.333333 21.333333 0 1 0-42.666666 0Z" fill="#F44336" p-id="2116"></path><path d="M384 554.666667m-42.666667 0a42.666667 42.666667 0 1 0 85.333334 0 42.666667 42.666667 0 1 0-85.333334 0Z" fill="#FFFFFF" p-id="2117"></path><path d="M384 554.666667m-21.333333 0a21.333333 21.333333 0 1 0 42.666666 0 21.333333 21.333333 0 1 0-42.666666 0Z" fill="#F44336" p-id="2118"></path><path d="M405.333333 704m42.666667 0l128 0q42.666667 0 42.666667 42.666667l0 42.666666q0 42.666667-42.666667 42.666667l-128 0q-42.666667 0-42.666667-42.666667l0-42.666666q0-42.666667 42.666667-42.666667Z" fill="#699948" p-id="2119"></path><path d="M448 725.333333h128a21.333333 21.333333 0 0 1 21.333333 21.333334v21.333333h-170.666666v-21.333333a21.333333 21.333333 0 0 1 21.333333-21.333334z" fill="#FFFFFF" p-id="2120"></path><path d="M426.666667 768h170.666666v42.666667h-149.333333a21.333333 21.333333 0 0 1-21.333333-21.333334z" fill="#F44336" p-id="2121"></path><path d="M554.666667 789.333333h42.666666v128a21.333333 21.333333 0 0 1-21.333333 21.333334 21.333333 21.333333 0 0 1-21.333333-21.333334v-128z" fill="#F44336" p-id="2122"></path></svg>